<svg xmlns="http://www.w3.org/2000/svg" viewBox="0 0 24 24" fill="currentColor"><path d="M5.721 0C2.251 0 0 2.25 0 5.719V18.28C0 21.751 2.252 24 5.721 24h12.56C21.751 24 24 21.75 24 18.281V5.72C24 2.249 21.75 0 18.281 0zm1.964 4.078c-.271.73-.272 1.047-.272 1.047h4.925s.027-.623-.318-1.047zm-2.16 2.24c-.09 0-.182.028-.26.086l-.052.04a.488.488 0 0 0-.128.505l.002.006c.48 1.316.74 2.586.886 3.678H4.16a.399.399 0 0 0-.398.398v.186c0 .22.178.398.398.398h1.753c.065 1.327-.073 2.937-.55 4.285a.419.419 0 0 0 .074.404l.13.16a.508.508 0 0 0 .612.12c1.11-.532 1.9-2.247 2.244-4.084h1.537c-.154 1.07-.587 2.246-1.325 3.024a.418.418 0 0 0-.055.467l.078.151a.502.502 0 0 0 .58.26c1.625-.427 2.724-2.47 3.11-4.54a.283.283 0 0 0-.017-.165.273.273 0 0 0-.147-.149.29.29 0 0 0-.115-.024h-3.74c-.044-.533-.06-1.11-.035-1.7a.256.256 0 0 1 .256-.247h3.767c.22 0 .398-.179.398-.398v-.186a.399.399 0 0 0-.398-.398h-3.622a28.696 28.696 0 0 0-.466-2.263.273.273 0 0 0-.014-.04c-.093-.303-.196-.611-.302-.912a.452.452 0 0 0-.427-.297zm8.119.24h-1.657c-.07 0-.134.037-.17.097l-.25.41a.198.198 0 0 0 .17.3h1.593l-1.448 5.418c-.04.147.074.288.225.288h.39a.23.23 0 0 0 .218-.159l1.595-5.543c.066-.277.117-.601-.004-.701-.063-.052-.317-.11-.662-.11zm1.56 1.36c-.494 0-.896.422-.896.944 0 .52.402.943.896.943s.896-.422.896-.943c0-.522-.402-.944-.896-.944zm-1.546 6.323a.202.202 0 0 0-.195.15l-.42 1.617c-.04.156.077.308.237.308h3.357c.294 0 .444.355.237.563l-3.022 3.035a.198.198 0 0 0 .14.338h.587c.057 0 .111-.024.15-.065l2.659-2.86a.198.198 0 0 1 .337.14v2.553c0 .11.089.198.198.198h.39a.198.198 0 0 0 .198-.198v-5.636a.198.198 0 0 0-.198-.198h-.399a.198.198 0 0 0-.198.198v1.325a.198.198 0 0 1-.337.14l-.623-.67a.198.198 0 0 1-.05-.177l.262-1.075a.198.198 0 0 0-.192-.245z"/></svg>
